<?xml version="1.0" standalone="no"?>
<!DOCTYPE svg PUBLIC "-//W3C//DTD SVG 20010904//EN"
 "http://www.w3.org/TR/2001/REC-SVG-20010904/DTD/svg10.dtd">
<svg version="1.0" xmlns="http://www.w3.org/2000/svg"
 width="400.000000pt" height="400.000000pt" viewBox="0 0 400.000000 400.000000"
 preserveAspectRatio="xMidYMid meet">
<metadata>
Created by potrace 1.15, written by Peter Selinger 2001-2017
</metadata>
<g transform="translate(0.000000,400.000000) scale(0.100000,-0.100000)"
fill="#000000" stroke="none">
<path d="M1795 3984 c-407 -59 -702 -175 -992 -390 -100 -75 -322 -297 -397
-397 -184 -248 -309 -535 -369 -847 -18 -98 -22 -150 -22 -350 0 -200 4 -252
22 -350 60 -312 185 -599 369 -847 75 -100 297 -322 397 -397 248 -184 535
-309 847 -369 98 -18 150 -22 350 -22 200 0 252 4 350 22 312 60 599 185 847
369 100 75 322 297 397 397 184 248 309 535 369 847 18 98 22 150 22 350 0
200 -4 252 -22 350 -60 312 -185 599 -369 847 -75 100 -297 322 -397 397 -246
183 -536 310 -842 367 -84 16 -159 22 -320 24 -115 2 -223 1 -240 -1z m170
-1655 l400 -401 -160 -154 c-88 -85 -165 -153 -172 -152 -7 2 -222 212 -478
467 l-465 463 0 89 0 89 238 0 237 0 400 -401z m1015 -379 l0 -780 -235 0
-235 0 0 457 0 457 -45 -44 -45 -45 -163 163 -162 162 205 205 205 205 237 0
238 0 0 -780z m-1647 242 l217 -217 -2 -400 -3 -400 -227 -3 -228 -2 0 620 c0
492 3 620 13 620 7 0 110 -98 230 -218z"/>
</g>
</svg>
