<?xml version="1.0" standalone="no"?>
<!DOCTYPE svg PUBLIC "-//W3C//DTD SVG 20010904//EN"
 "http://www.w3.org/TR/2001/REC-SVG-20010904/DTD/svg10.dtd">
<svg version="1.0" xmlns="http://www.w3.org/2000/svg"
 width="1280.000000pt" height="1280.000000pt" viewBox="0 0 1280.000000 1280.000000"
 preserveAspectRatio="xMidYMid meet">
<metadata>
Created by potrace 1.15, written by Peter Selinger 2001-2017
</metadata>
<g transform="translate(0.000000,1280.000000) scale(0.100000,-0.100000)"
fill="#000000" stroke="none">
<path d="M5945 11579 c-1793 -141 -3392 -1156 -4284 -2719 -364 -638 -592
-1358 -673 -2130 -18 -169 -18 -861 0 -1030 135 -1280 670 -2407 1566 -3295
918 -910 2106 -1452 3405 -1554 174 -14 658 -14 832 0 1052 82 2025 450 2858
1079 1131 855 1880 2118 2080 3510 40 276 46 378 46 775 0 397 -6 499 -46 775
-197 1369 -935 2630 -2034 3475 -852 655 -1839 1032 -2914 1115 -158 12 -677
11 -836 -1z m747 -1638 c649 -139 1129 -620 1269 -1271 20 -89 23 -135 23
-305 0 -225 -15 -319 -80 -514 -154 -463 -547 -853 -1019 -1010 -185 -61 -279
-75 -510 -75 -181 0 -225 3 -315 22 -652 142 -1132 621 -1271 1272 -20 89 -23
135 -23 305 0 170 3 216 23 305 69 325 215 595 441 820 121 121 185 172 325
256 164 100 411 187 606 213 120 16 417 6 531 -18z m18 -4232 c755 -66 1611
-323 2151 -645 453 -271 720 -599 745 -919 l6 -70 -58 -80 c-235 -325 -519
-618 -824 -850 -574 -436 -1238 -697 -1975 -777 -155 -17 -605 -17 -760 0
-1144 124 -2126 695 -2799 1627 l-58 80 6 74 c7 93 58 242 113 336 153 258
444 496 856 699 612 302 1346 488 2127 540 78 5 334 -3 470 -15z"/>
</g>
</svg>
