<?xml version="1.0" standalone="no"?>
<!DOCTYPE svg PUBLIC "-//W3C//DTD SVG 20010904//EN"
 "http://www.w3.org/TR/2001/REC-SVG-20010904/DTD/svg10.dtd">
<svg version="1.0" xmlns="http://www.w3.org/2000/svg"
 width="50px" height="50px" viewBox="0 0 981.000000 926.000000"
 preserveAspectRatio="xMidYMid meet">
<metadata>
Created by potrace 1.15, written by Peter Selinger 2001-2017
</metadata>
<g transform="translate(0.000000,926.000000) scale(0.100000,-0.100000)"
fill="#000000" stroke="none">
<path d="M4805 9250 c-186 -26 -354 -136 -472 -310 -17 -25 -290 -564 -607
-1198 -317 -634 -582 -1155 -589 -1157 -6 -3 -584 -86 -1284 -184 -700 -99
-1301 -187 -1335 -196 -35 -9 -106 -37 -158 -62 -79 -38 -108 -59 -175 -127
-92 -93 -127 -152 -155 -262 -50 -196 2 -403 149 -586 32 -40 470 -473 973
-961 l915 -889 -8 -41 c-5 -23 -106 -591 -226 -1262 -207 -1165 -217 -1226
-218 -1350 0 -109 4 -142 23 -205 64 -205 219 -355 422 -406 108 -27 267 -16
409 30 115 37 177 68 1964 1002 235 123 431 224 435 224 8 0 196 -98 1597
-830 446 -233 831 -432 857 -441 25 -10 86 -23 135 -30 146 -18 275 10 419 92
202 116 272 239 282 494 l4 130 -216 1275 c-119 701 -218 1285 -221 1296 -4
18 145 168 853 855 1061 1032 1058 1028 1116 1116 157 239 151 463 -17 690
-82 110 -219 200 -372 243 -53 15 -2622 380 -2675 380 -5 0 -268 516 -584
1148 -316 631 -596 1181 -623 1222 -92 139 -234 250 -364 283 -74 20 -182 27
-254 17z m134 -556 c26 -30 79 -125 145 -258 682 -1388 1102 -2226 1129 -2254
44 -46 103 -79 157 -86 25 -3 538 -75 1140 -161 602 -85 1208 -170 1345 -190
338 -47 425 -79 411 -149 -4 -17 -19 -47 -35 -66 -15 -19 -477 -467 -1026
-995 -794 -763 -1004 -970 -1025 -1010 -19 -37 -25 -64 -24 -110 0 -33 105
-667 233 -1410 156 -905 231 -1364 228 -1392 -7 -66 -20 -76 -94 -71 -50 3
-81 13 -151 49 -48 24 -609 317 -1247 649 l-1160 605 -119 1 -119 1 -1204
-627 c-1261 -657 -1284 -668 -1351 -641 -37 16 -62 59 -62 109 0 23 106 640
235 1372 129 732 235 1344 235 1359 0 45 -29 144 -53 177 -21 30 -1752 1696
-1910 1839 -81 73 -110 110 -121 158 -9 36 24 67 102 96 56 21 155 36 2240
336 534 76 587 86 622 109 42 28 1 -53 954 1876 272 550 309 621 358 673 46
49 58 57 90 57 31 0 43 -7 77 -46z"/>
</g>
</svg>
