<?xml version="1.0" standalone="no"?>
<!DOCTYPE svg PUBLIC "-//W3C//DTD SVG 20010904//EN"
 "http://www.w3.org/TR/2001/REC-SVG-20010904/DTD/svg10.dtd">
<svg version="1.0" xmlns="http://www.w3.org/2000/svg"
 width="50px" height="50px" viewBox="0 0 640.000000 600.000000"
 preserveAspectRatio="xMidYMid meet">
<metadata>
Created by potrace 1.15, written by Peter Selinger 2001-2017
</metadata>
<g transform="translate(0.000000,600.000000) scale(0.100000,-0.100000)"
fill="#000000" stroke="none">
<path d="M3108 5983 c-9 -10 -228 -434 -487 -943 l-472 -925 -1051 -145 c-857
-118 -1056 -148 -1075 -163 -33 -26 -31 -71 6 -105 16 -15 358 -344 760 -731
435 -419 731 -711 731 -722 0 -10 -81 -468 -180 -1019 -99 -550 -180 -1010
-180 -1020 0 -28 35 -60 65 -60 13 0 67 22 118 50 52 27 96 50 99 50 2 0 -5
-52 -17 -115 -12 -63 -19 -115 -14 -115 4 0 432 216 950 480 519 264 946 480
950 480 4 0 431 -220 950 -490 519 -269 944 -488 946 -486 2 1 -76 463 -172
1026 -96 562 -175 1028 -175 1034 0 6 347 340 772 741 l772 730 -40 6 c-21 4
-79 12 -128 19 l-90 13 66 61 c94 88 101 144 20 165 -20 5 -497 76 -1060 158
l-1023 148 -467 930 c-256 511 -474 937 -484 947 -23 23 -70 23 -90 1z m496
-1100 c299 -598 451 -893 463 -897 10 -3 463 -71 1007 -151 544 -79 991 -146
993 -148 2 -2 -320 -309 -714 -682 -395 -373 -724 -688 -732 -700 -12 -20 5
-131 153 -999 92 -538 166 -979 164 -980 -3 -3 -415 210 -983 506 -714 373
-801 418 -822 418 -12 0 -424 -205 -915 -455 -491 -250 -894 -451 -896 -446
-3 9 81 501 139 811 100 533 199 1093 199 1124 0 33 -38 72 -720 727 -396 381
-717 696 -713 699 5 4 456 68 1003 144 611 83 999 141 1007 149 20 20 288 554
333 664 23 57 45 101 49 99 11 -7 172 324 165 336 -4 6 -3 8 4 4 6 -4 69 108
160 286 154 302 202 391 207 386 2 -2 204 -404 449 -895z"/>
</g>
</svg>
